<svg height="175" width="980" class="viz"><g transform="translate(50,20)"><g class="x axis" transform="translate(10, 125)"><g class="tick" transform="translate(20.487231182795696,0)" style="opacity: 1;"><line y2="6" x2="0"></line><text y="9" x="0" dy=".71em" style="text-anchor: middle;">October</text></g><g class="tick" transform="translate(72.44623655913979,0)" style="opacity: 1;"><line y2="6" x2="0"></line><text y="9" x="0" dy=".71em" style="text-anchor: middle;">2013</text></g><g class="tick" transform="translate(123.22916666666666,0)" style="opacity: 1;"><line y2="6" x2="0"></line><text y="9" x="0" dy=".71em" style="text-anchor: middle;">April</text></g><g class="tick" transform="translate(174.60013440860214,0)" style="opacity: 1;"><line y2="6" x2="0"></line><text y="9" x="0" dy=".71em" style="text-anchor: middle;">July</text></g><g class="tick" transform="translate(226.53561827956986,0)" style="opacity: 1;"><line y2="6" x2="0"></line><text y="9" x="0" dy=".71em" style="text-anchor: middle;">October</text></g><g class="tick" transform="translate(278.494623655914,0)" style="opacity: 1;"><line y2="6" x2="0"></line><text y="9" x="0" dy=".71em" style="text-anchor: middle;">2014</text></g><g class="tick" transform="translate(329.27755376344084,0)" style="opacity: 1;"><line y2="6" x2="0"></line><text y="9" x="0" dy=".71em" style="text-anchor: middle;">April</text></g><g class="tick" transform="translate(380.6485215053763,0)" style="opacity: 1;"><line y2="6" x2="0"></line><text y="9" x="0" dy=".71em" style="text-anchor: middle;">July</text></g><g class="tick" transform="translate(432.58400537634407,0)" style="opacity: 1;"><line y2="6" x2="0"></line><text y="9" x="0" dy=".71em" style="text-anchor: middle;">October</text></g><g class="tick" transform="translate(484.54301075268813,0)" style="opacity: 1;"><line y2="6" x2="0"></line><text y="9" x="0" dy=".71em" style="text-anchor: middle;">2015</text></g><g class="tick" transform="translate(535.325940860215,0)" style="opacity: 1;"><line y2="6" x2="0"></line><text y="9" x="0" dy=".71em" style="text-anchor: middle;">April</text></g><g class="tick" transform="translate(586.6969086021505,0)" style="opacity: 1;"><line y2="6" x2="0"></line><text y="9" x="0" dy=".71em" style="text-anchor: middle;">July</text></g><g class="tick" transform="translate(638.6323924731183,0)" style="opacity: 1;"><line y2="6" x2="0"></line><text y="9" x="0" dy=".71em" style="text-anchor: middle;">October</text></g><g class="tick" transform="translate(690.5913978494624,0)" style="opacity: 1;"><line y2="6" x2="0"></line><text y="9" x="0" dy=".71em" style="text-anchor: middle;">2016</text></g><g class="tick" transform="translate(741.9388440860215,0)" style="opacity: 1;"><line y2="6" x2="0"></line><text y="9" x="0" dy=".71em" style="text-anchor: middle;">April</text></g><g class="tick" transform="translate(793.309811827957,0)" style="opacity: 1;"><line y2="6" x2="0"></line><text y="9" x="0" dy=".71em" style="text-anchor: middle;">July</text></g><g class="tick" transform="translate(845.2452956989247,0)" style="opacity: 1;"><line y2="6" x2="0"></line><text y="9" x="0" dy=".71em" style="text-anchor: middle;">October</text></g><g class="tick" transform="translate(897.2043010752687,0)" style="opacity: 1;"><line y2="6" x2="0"></line><text y="9" x="0" dy=".71em" style="text-anchor: middle;">2017</text></g><path class="domain" d="M0,6V0H910V6"></path></g><g class="y axis"><g class="tick" transform="translate(0,125)" style="opacity: 1;"><line x2="910" y2="0"></line><text x="-10" y="0" dy=".32em" style="text-anchor: end;">0</text></g><g class="tick" transform="translate(0,97.70742358078603)" style="opacity: 1;"><line x2="910" y2="0"></line><text x="-10" y="0" dy=".32em" style="text-anchor: end;">50</text></g><g class="tick" transform="translate(0,70.41484716157206)" style="opacity: 1;"><line x2="910" y2="0"></line><text x="-10" y="0" dy=".32em" style="text-anchor: end;">100</text></g><g class="tick" transform="translate(0,43.12227074235808)" style="opacity: 1;"><line x2="910" y2="0"></line><text x="-10" y="0" dy=".32em" style="text-anchor: end;">150</text></g><g class="tick" transform="translate(0,15.82969432314411)" style="opacity: 1;"><line x2="910" y2="0"></line><text x="-10" y="0" dy=".32em" style="text-anchor: end;">200</text></g><path class="domain" d="M910,0H0V125H910"></path></g><path class="area" d="M0,112.44541484716157L0.6586021505376344,108.35152838427948C1.3172043010752688,104.25764192139737,2.6344086021505375,96.06986899563319,3.951612903225806,93.79548762736535C5.268817204301075,91.52110625909752,6.586021505376344,95.16011644832605,7.903225806451612,96.61572052401746C9.220430107526882,98.07132459970887,10.53763440860215,97.34352256186315,11.85483870967742,94.06841339155748C13.172043010752688,90.7933042212518,14.489247311827956,84.97088791848617,15.806451612903226,78.78457059679766C17.123655913978496,72.59825327510917,18.440860215053764,66.04803493449782,19.758064516129032,60.043668122270745C21.0752688172043,54.03930131004367,22.392473118279568,48.580786026200876,23.70967741935484,46.6703056768559C25.026881720430104,44.75982532751092,26.344086021505372,46.39737991266375,27.661290322580644,50.03639010189229C28.978494623655912,53.675400291120816,30.29569892473118,59.31586608442504,31.61290322580645,60.68049490538574C32.93010752688172,62.04512372634644,34.247311827956985,59.13391557496361,35.564516129032256,58.31513828238719C36.88172043010752,57.49636098981077,38.19892473118279,58.770014556040756,39.516129032258064,61.681222707423586C40.83333333333333,64.59243085880641,42.1505376344086,69.14119359534207,43.46774193548387,76.05531295487629C44.784946236559136,82.96943231441048,46.10215053763441,92.24890829694323,47.41935483870968,92.52183406113537C48.736559139784944,92.7947598253275,50.05376344086021,84.06113537117903,51.37096774193548,81.24090247452693C52.688172043010745,78.42066957787482,54.00537634408602,81.51382823871907,55.32258064516128,83.15138282387191C56.639784946236546,84.78893740902475,57.95698924731182,84.97088791848617,59.27419354838709,89.06477438136825C60.59139784946235,93.15866084425036,61.90860215053763,101.16448326055311,63.2258064516129,107.71470160116448C64.54301075268818,114.26491994177583,65.86021505376344,119.35953420669577,67.17741935483872,118.44978165938863C68.49462365591398,117.54002911208151,69.81182795698925,110.6259097525473,71.12903225806451,102.52911208151382C72.44623655913978,94.43231441048033,73.76344086021504,85.15283842794759,75.0806451612903,82.5145560407569C76.39784946236558,79.87627365356622,77.71505376344086,83.8791848617176,79.03225806451613,86.15356622998544C80.34946236559139,88.42794759825327,81.66666666666666,88.97379912663754,82.98387096774194,88.70087336244542C84.3010752688172,88.42794759825327,85.61827956989247,87.33624454148472,86.93548387096774,86.69941775836972C88.25268817204301,86.06259097525474,89.56989247311827,85.8806404657933,90.88709677419355,84.06113537117905C92.20430107526882,82.24163027656478,93.5215053763441,78.78457059679766,94.83870967741936,80.96797671033478C96.15591397849462,83.1513828238719,97.47311827956987,90.97525473071325,98.79032258064515,94.7962154294032C100.10752688172042,98.61717612809315,101.42473118279568,98.43522561863173,102.74193548387095,93.52256186317321C104.05913978494623,88.6098981077147,105.3763440860215,78.96652110625911,106.69354838709677,73.23508005822417C108.01075268817203,67.50363901018923,109.3279569892473,65.68413391557496,110.64516129032256,67.50363901018923C111.96236559139783,69.32314410480349,113.2795698924731,74.78165938864628,114.59677419354837,76.32823871906841C115.91397849462365,77.87481804949053,117.23118279569891,75.509461426492,118.54838709677418,76.2372634643377C119.86559139784944,76.96506550218342,121.1827956989247,80.78602620087337,122.49999999999999,84.87991266375548C123.81720430107526,88.97379912663756,125.13440860215053,93.3406113537118,126.45161290322581,93.88646288209608C127.76881720430107,94.43231441048034,129.08602150537635,91.15720524017468,130.40322580645162,90.33842794759825C131.72043010752688,89.51965065502182,133.03763440860217,91.15720524017466,134.35483870967744,91.15720524017468C135.6720430107527,91.15720524017466,136.98924731182797,89.51965065502182,138.30645161290323,88.51892285298398C139.6236559139785,87.51819505094613,140.94086021505376,87.15429403202329,142.25806451612902,86.5174672489083C143.5752688172043,85.8806404657933,144.89247311827955,84.97088791848617,146.20967741935482,83.97016011644833C147.52688172043008,82.96943231441048,148.84408602150535,81.87772925764192,150.1612903225806,81.87772925764192C151.47849462365588,81.87772925764192,152.79569892473114,82.96943231441048,154.11290322580643,86.24454148471615C155.4301075268817,89.51965065502182,156.747311827957,94.97816593886462,158.06451612903226,96.52474526928674C159.38172043010752,98.07132459970887,160.69892473118279,95.70596797671033,162.01612903225805,95.25109170305677C163.33333333333331,94.7962154294032,164.65053763440858,96.25181950509462,165.96774193548384,96.34279475982534C167.28494623655914,96.43377001455605,168.6021505376344,95.16011644832605,169.91935483870967,95.52401746724891C171.23655913978493,95.88791848617176,172.5537634408602,97.88937409024746,173.87096774193546,98.34425036390101C175.18817204301075,98.79912663755458,176.50537634408602,97.70742358078601,177.82258064516128,97.52547307132458C179.13978494623655,97.34352256186315,180.4569892473118,98.07132459970887,181.77419354838707,95.25109170305676C183.09139784946237,92.43085880640466,184.40860215053763,86.06259097525472,185.72580645161293,85.60771470160115C187.04301075268816,85.15283842794759,188.36021505376345,90.61135371179039,189.67741935483872,89.3377001455604C190.99462365591398,88.06404657933041,192.31182795698922,80.05822416302765,193.6290322580645,79.60334788937408C194.94623655913975,79.14847161572052,196.263440860215,86.24454148471615,197.58064516129025,90.79330422125182C198.89784946236554,95.34206695778748,200.2150537634408,97.34352256186317,201.5322580645161,98.34425036390101C202.84946236559136,99.34497816593885,204.16666666666663,99.34497816593885,205.48387096774192,99.79985443959242C206.80107526881716,100.25473071324599,208.11827956989242,101.16448326055313,209.43548387096772,103.25691411935952C210.75268817204298,105.34934497816593,212.06989247311827,108.62445414847161,213.38709677419354,109.07933042212517C214.7043010752688,109.53420669577875,216.02150537634407,107.1688500727802,217.33870967741933,105.53129548762735C218.6559139784946,103.89374090247452,219.97311827956986,102.98398835516738,221.29032258064512,102.07423580786025C222.6075268817204,101.16448326055313,223.92473118279565,100.25473071324599,225.24193548387092,100.52765647743814C226.55913978494618,100.80058224163027,227.87634408602148,102.25618631732168,229.19354838709677,104.16666666666666C230.51075268817203,106.07714701601164,231.8279569892473,108.44250363901018,233.14516129032256,104.89446870451238C234.46236559139783,101.34643377001456,235.7795698924731,91.88500727802038,237.09677419354836,85.69868995633189C238.41397849462362,79.51237263464338,239.73118279569889,76.60116448326056,241.04838709677415,73.78093158660845C242.36559139784944,70.96069868995633,243.6827956989247,68.23144104803494,245,60.77147016011645C246.31720430107524,53.31149927219796,247.6344086021505,41.12081513828239,248.95161290322577,43.21324599708879C250.26881720430106,45.3056768558952,251.58602150537632,61.681222707423586,252.9032258064516,73.50800582241631C254.22043010752685,85.33478893740903,255.53763440860212,92.61280931586609,256.8548387096774,92.06695778748181C258.17204301075265,91.52110625909752,259.48924731182797,83.1513828238719,260.80645161290323,78.9665211062591C262.1236559139785,74.78165938864629,263.44086021505376,74.78165938864629,264.758064516129,79.0574963609898C266.0752688172043,83.33333333333333,267.39247311827955,91.88500727802037,268.7096774193549,100.07278020378456C270.0268817204301,108.26055312954875,271.34408602150535,116.08442503639009,272.6612903225806,118.8136826783115C273.9784946236559,121.54294032023289,275.29569892473114,119.17758369723434,276.61290322580646,114.99272197962152C277.9301075268817,110.80786026200872,279.247311827957,104.80349344978166,280.56451612903226,102.43813682678312C281.8817204301075,100.07278020378456,283.1989247311828,101.34643377001456,284.51612903225805,100.80058224163027C285.8333333333333,100.25473071324599,287.1505376344086,97.88937409024746,288.46774193548384,92.52183406113538C289.7849462365591,87.15429403202329,291.1021505376344,78.78457059679766,292.41935483870964,80.3311499272198C293.7365591397849,81.87772925764192,295.05376344086017,93.34061135371178,296.37096774193543,98.52620087336244C297.6881720430107,103.71179039301309,299.005376344086,102.62008733624452,300.3225806451612,102.80203784570595C301.63978494623655,102.98398835516738,302.95698924731175,104.4395924308588,304.2741935483871,103.43886462882095C305.5913978494623,102.43813682678311,306.9086021505376,98.98107714701601,308.2258064516128,93.97743813682678C309.54301075268813,88.97379912663754,310.86021505376345,82.42358078602619,312.1774193548387,83.97016011644831C313.494623655914,85.51673944687045,314.81182795698925,95.16011644832605,316.1290322580645,101.52838427947597C317.4462365591398,107.8966521106259,318.76344086021504,110.98981077147016,320.0806451612903,113.4461426491994C321.39784946236557,115.90247452692867,322.71505376344084,117.72197962154294,324.03225806451616,119.35953420669577C325.34946236559136,120.99708879184861,326.66666666666663,122.45269286754002,327.9838709677419,122.72561863173217C329.3010752688172,122.9985443959243,330.6182795698925,122.08879184861716,331.93548387096774,122.17976710334787C333.252688172043,122.27074235807859,334.5698924731183,123.36244541484716,335.88709677419354,123.81732168850073C337.2043010752688,124.2721979621543,338.52150537634407,124.09024745269286,339.83870967741933,123.81732168850073C341.1559139784946,123.54439592430859,342.47311827956986,123.18049490538573,343.7903225806451,123.08951965065502C345.1075268817204,122.9985443959243,346.42473118279565,123.18049490538573,347.741935483871,123.18049490538573C349.0591397849462,123.18049490538573,350.37634408602145,122.9985443959243,351.6935483870967,122.81659388646287C353.010752688172,122.63464337700145,354.32795698924724,122.45269286754004,355.64516129032256,122.72561863173217C356.96236559139777,122.99854439592431,358.2795698924731,123.72634643377002,359.5967741935483,124.09024745269286C360.9139784946236,124.45414847161572,362.23118279569894,124.45414847161572,363.5483870967742,124.18122270742359C364.86559139784947,123.90829694323145,366.1827956989247,123.36244541484716,367.4999999999999,123.45342066957787C368.8172043010752,123.54439592430859,370.13440860215053,124.27219796215428,371.4516129032258,124.54512372634643C372.76881720430106,124.81804949053857,374.0860215053763,124.63609898107714,375.4032258064516,124.45414847161572C376.72043010752685,124.2721979621543,378.0376344086021,124.09024745269286,379.35483870967744,123.99927219796214C380.6720430107527,123.90829694323143,381.98924731182797,123.90829694323143,383.3064516129032,123.089519650655C384.6236559139785,122.27074235807859,385.9408602150537,120.63318777292575,387.25806451612897,120.63318777292574C388.57526881720423,120.63318777292575,389.8924731182795,122.27074235807859,391.20967741935476,123.089519650655C392.52688172043,123.90829694323143,393.8440860215053,123.90829694323143,395.16129032258056,123.99927219796214C396.4784946236558,124.09024745269286,397.79569892473114,124.2721979621543,399.11290322580635,124.18122270742357C400.43010752688167,124.09024745269286,401.7473118279569,123.72634643377,403.06451612903214,123.81732168850071C404.3817204301074,123.90829694323142,405.69892473118273,124.45414847161571,407.01612903225805,124.72707423580785C408.33333333333326,125,409.6505376344086,125,410.9677419354838,124.81804949053856C412.2849462365591,124.63609898107714,413.60215053763443,124.27219796215428,414.9193548387097,123.81732168850073C416.23655913978496,123.36244541484716,417.55376344086017,122.81659388646288,418.8709677419355,122.9985443959243C420.1881720430107,123.18049490538573,421.505376344086,124.09024745269286,422.8225806451613,124.45414847161572C424.13978494623655,124.81804949053857,425.4569892473118,124.63609898107714,426.7741935483871,124.63609898107714C428.09139784946234,124.63609898107714,429.4086021505376,124.81804949053857,430.72580645161287,124.90902474526928C432.04301075268813,125,433.3602150537634,125,434.67741935483866,124.90902474526928C435.9946236559139,124.81804949053857,437.3118279569892,124.63609898107714,438.62903225806446,124.63609898107714C439.9462365591397,124.63609898107714,441.263440860215,124.81804949053857,442.58064516129025,124.63609898107714C443.8978494623655,124.45414847161571,445.2150537634408,123.90829694323142,446.53225806451604,123.90829694323142C447.8494623655913,123.90829694323142,449.1666666666666,124.45414847161571,450.48387096774184,124.72707423580785C451.8010752688171,125,453.11827956989237,125,454.43548387096763,124.99999999999999C455.7526881720429,125,457.0698924731182,125,458.3870967741935,124.99999999999999C459.70430107526875,125,461.02150537634407,125,462.3387096774193,124.99999999999999C463.6559139784946,125,464.9731182795699,125,466.2903225806452,124.99999999999999C467.60752688172045,125,468.9247311827957,125,470.241935483871,124.99999999999999C471.5591397849462,125,472.87634408602145,125,474.1935483870967,124.99999999999999C475.5107526881719,125,476.82795698924724,125,478.14516129032245,124.99999999999999C479.46236559139777,125,480.7795698924731,125,482.09677419354836,124.99999999999999C483.4139784946236,125,484.7311827956989,125,486.04838709677415,124.72707423580785C487.3655913978494,124.45414847161571,488.6827956989247,123.90829694323142,489.99999999999994,123.90829694323142C491.3172043010752,123.90829694323142,492.6344086021505,124.45414847161571,493.95161290322574,124.27219796215428C495.268817204301,124.09024745269286,496.58602150537627,123.18049490538573,497.90322580645153,120.45123726346434C499.2204301075268,117.72197962154294,500.5376344086021,113.17321688500728,501.8548387096774,112.53639010189228C503.17204301075265,111.8995633187773,504.48924731182797,115.17467248908297,505.8064516129032,117.81295487627365C507.12365591397844,120.45123726346434,508.4408602150537,122.45269286754004,509.7580645161289,123.54439592430859C511.0752688172042,124.63609898107714,512.3924731182794,124.81804949053857,513.7096774193548,124.90902474526928C515.02688172043,125,516.3440860215053,125,517.6612903225805,124.99999999999999C518.9784946236559,125,520.2956989247311,125,521.6129032258065,124.90902474526928C522.9301075268817,124.81804949053857,524.247311827957,124.63609898107714,525.5645161290322,124.63609898107714C526.8817204301074,124.63609898107714,528.1989247311827,124.81804949053857,529.516129032258,124.81804949053857C530.8333333333333,124.81804949053857,532.1505376344086,124.63609898107714,533.4677419354839,124.63609898107714C534.7849462365591,124.63609898107714,536.1021505376344,124.81804949053857,537.4193548387098,124.90902474526928C538.736559139785,125,540.0537634408602,125,541.3709677419354,124.99999999999999C542.6881720430106,125,544.0053763440859,125,545.3225806451612,124.99999999999999C546.6397849462364,125,547.9569892473118,125,549.2741935483871,124.99999999999999C550.5913978494623,125,551.9086021505376,125,553.2258064516129,124.99999999999999C554.5430107526881,125,555.8602150537633,125,557.1774193548387,124.99999999999999C558.4946236559139,125,559.8118279569892,125,561.1290322580644,124.99999999999999C562.4462365591398,125,563.763440860215,125,565.0806451612904,124.99999999999999C566.3978494623656,125,567.7150537634409,125,569.0322580645161,124.45414847161571C570.3494623655913,123.90829694323143,571.6666666666665,122.81659388646287,572.9838709677418,122.81659388646287C574.301075268817,122.81659388646287,575.6182795698924,123.90829694323143,576.9354838709676,124.45414847161571C578.252688172043,125,579.5698924731182,125,580.8870967741935,124.99999999999999C582.2043010752687,125,583.5215053763441,125,584.8387096774193,124.99999999999999C586.1559139784945,125,587.4731182795698,125,588.7903225806451,124.99999999999999C590.1075268817203,125,591.4247311827957,125,592.741935483871,124.99999999999999C594.0591397849462,125,595.3763440860215,125,596.6935483870968,124.81804949053856C598.010752688172,124.63609898107714,599.3279569892472,124.27219796215428,600.6451612903224,124.27219796215428C601.9623655913978,124.27219796215428,603.2795698924731,124.63609898107714,604.5967741935483,124.81804949053857C605.9139784946235,125,607.2311827956988,125,608.5483870967741,109.9890829694323C609.8655913978494,94.97816593886462,611.1827956989247,64.95633187772926,612.5,64.04657933042213C613.8172043010752,63.13682678311499,615.1344086021504,91.33915574963609,616.4516129032257,106.35007278020377C617.768817204301,121.36098981077146,619.0860215053763,123.18049490538573,620.4032258064515,124.09024745269285C621.7204301075269,125,623.0376344086021,125,624.3548387096774,122.54366812227073C625.6720430107526,120.08733624454148,626.989247311828,115.17467248908295,628.3064516129032,108.89737991266374C629.6236559139784,102.62008733624452,630.9408602150537,94.97816593886462,632.258064516129,94.52328966521105C633.5752688172042,94.0684133915575,634.8924731182796,100.80058224163028,636.2096774193549,106.80494905385734C637.5268817204301,112.80931586608442,638.8440860215053,118.08588064046577,640.1612903225806,117.5400291120815C641.4784946236558,116.99417758369722,642.7956989247311,110.6259097525473,644.1129032258063,110.5349344978166C645.4301075268816,110.44395924308589,646.7473118279569,116.63027656477438,648.0645161290322,119.17758369723435C649.3817204301074,121.72489082969432,650.6989247311827,120.63318777292577,652.016129032258,117.54002911208151C653.3333333333333,114.44687045123726,654.6505376344086,109.35225618631732,655.9677419354839,109.62518195050947C657.2849462365591,109.8981077147016,658.6021505376343,115.53857350800581,659.9193548387096,117.44905385735079C661.2365591397848,119.35953420669577,662.5537634408602,117.54002911208151,663.8709677419354,116.63027656477439C665.1881720430108,115.72052401746726,666.505376344086,115.72052401746726,667.8225806451613,116.08442503639012C669.1397849462365,116.44832605531296,670.4569892473119,117.17612809315867,671.7741935483871,117.81295487627366C673.0913978494623,118.44978165938865,674.4086021505375,118.99563318777292,675.7258064516128,119.26855895196508C677.043010752688,119.5414847161572,678.3602150537633,119.5414847161572,679.6774193548385,118.26783114992722C680.994623655914,116.99417758369722,682.3118279569892,114.44687045123726,683.6290322580645,114.35589519650654C684.9462365591397,114.26491994177583,686.263440860215,116.63027656477436,687.5806451612902,117.81295487627364C688.8978494623655,118.99563318777291,690.2150537634408,118.99563318777291,691.5322580645161,118.8136826783115C692.8494623655913,118.63173216885006,694.1666666666666,118.26783114992722,695.483870967742,116.90320232896653C696.8010752688172,115.53857350800583,698.1182795698925,113.17321688500728,699.4354838709678,109.1703056768559C700.752688172043,105.16739446870452,702.0698924731182,99.52692867540028,703.3870967741934,101.61935953420668C704.7043010752686,103.71179039301309,706.021505376344,113.53711790393012,707.3387096774193,117.99490538573507C708.6559139784945,122.45269286754001,709.9731182795698,121.54294032023289,711.2903225806451,121.6339155749636C712.6075268817203,121.72489082969432,713.9247311827957,122.81659388646287,715.241935483871,123.27147016011644C716.5591397849462,123.72634643377,717.8763440860214,123.54439592430857,719.1935483870967,123.72634643376999C720.5107526881719,123.90829694323142,721.8279569892472,124.45414847161571,723.1451612903224,122.54366812227073C724.4623655913979,120.63318777292577,725.7795698924731,116.26637554585153,727.0967741935484,114.62882096069868C728.4139784946236,112.99126637554585,729.7311827956989,114.0829694323144,731.0483870967741,113.08224163027656C732.3655913978494,112.08151382823871,733.6827956989246,108.98835516739446,734.9999999999999,105.62227074235807C736.3172043010751,102.25618631732168,737.6344086021504,98.61717612809315,738.9516129032256,94.43231441048036C740.2688172043011,90.24745269286754,741.5860215053763,85.51673944687045,742.9032258064516,87.51819505094615C744.2204301075268,89.51965065502182,745.5376344086021,98.25327510917029,746.8548387096773,102.07423580786025C748.1720430107525,105.8951965065502,749.4892473118279,104.80349344978166,750.8064516129032,101.98326055312954C752.1236559139784,99.16302765647742,753.4408602150537,94.61426491994177,754.758064516129,92.61280931586607C756.0752688172042,90.6113537117904,757.3924731182796,91.15720524017468,758.7096774193549,93.52256186317321C760.0268817204301,95.88791848617176,761.3440860215053,100.07278020378456,762.6612903225806,102.89301310043668C763.9784946236558,105.71324599708879,765.2956989247311,107.1688500727802,766.6129032258063,106.4410480349345C767.9301075268817,105.71324599708879,769.2473118279569,102.80203784570597,770.5645161290322,96.06986899563319C771.8817204301074,89.3377001455604,773.1989247311826,78.78457059679766,774.5161290322579,75.509461426492C775.8333333333333,72.23435225618631,777.1505376344085,76.23726346433769,778.4677419354838,75.41848617176127C779.784946236559,74.59970887918485,781.1021505376343,68.95924308588064,782.4193548387095,66.32096069868996C783.7365591397848,63.682678311499274,785.0537634408602,64.04657933042213,786.3709677419354,64.13755458515284C787.6881720430107,64.22852983988355,789.0053763440859,64.04657933042213,790.3225806451611,66.50291120815139C791.6397849462364,68.95924308588064,792.9569892473118,74.05385735080058,794.2741935483871,72.41630276564774C795.5913978494623,70.7787481804949,796.9086021505376,62.40902474526928,798.2258064516129,55.31295487627365C799.5430107526881,48.216885007278016,800.8602150537633,42.39446870451238,802.1774193548385,33.47889374090248C803.4946236559139,24.56331877729258,804.8118279569891,12.554585152838428,806.1290322580644,17.649199417758368C807.4462365591396,22.743813682678304,808.7634408602149,44.94177583697233,810.0806451612901,49.67248908296943C811.3978494623655,54.403202328966515,812.7150537634408,41.666666666666664,814.0322580645161,45.214701601164485C815.3494623655913,48.7627365356623,816.6666666666665,68.59534206695778,817.9838709677418,75.69141193595343C819.3010752688172,82.78748180494905,820.6182795698924,77.14701601164482,821.9354838709677,81.7867540029112C823.2526881720429,86.42649199417758,824.5698924731182,101.34643377001456,825.8870967741934,107.71470160116448C827.2043010752687,114.0829694323144,828.5215053763441,111.8995633187773,829.8387096774193,104.62154294032023C831.1559139784946,97.34352256186317,832.4731182795698,84.97088791848617,833.790322580645,81.87772925764192C835.1075268817203,78.78457059679766,836.4247311827955,84.97088791848617,837.7419354838707,89.2467248908297C839.0591397849461,93.52256186317322,840.3763440860214,95.88791848617176,841.6935483870966,93.15866084425036C843.0107526881719,90.42940320232896,844.3279569892472,82.60553129548762,845.6451612903224,76.32823871906841C846.9623655913978,70.0509461426492,848.279569892473,65.3202328966521,849.5967741935483,59.679767103347885C850.9139784946235,54.03930131004366,852.2311827956988,47.48908296943232,853.548387096774,43.486171761280936C854.8655913978494,39.483260553129554,856.1827956989247,38.02765647743814,857.5,35.20742358078603C858.8172043010752,32.38719068413392,860.1344086021504,28.202328966521108,861.4516129032256,32.84206695778748C862.768817204301,37.48180494905386,864.0860215053762,50.946142649199416,865.4032258064514,60.13464337700145C866.7204301075267,69.32314410480349,868.037634408602,74.23580786026201,869.3548387096773,78.69359534206696C870.6720430107525,83.1513828238719,871.9892473118279,87.15429403202329,873.3064516129032,85.42576419213975C874.6236559139784,83.69723435225619,875.9408602150536,76.2372634643377,877.2580645161289,76.78311499272198C878.5752688172042,77.32896652110625,879.8924731182794,85.8806404657933,881.2096774193546,85.42576419213974C882.52688172043,84.97088791848617,883.8440860215053,75.509461426492,885.1612903225805,69.14119359534207C886.4784946236558,62.77292576419214,887.7956989247311,59.497816593886455,889.1129032258063,57.22343522561862C890.4301075268817,54.94905385735079,891.7473118279569,53.67540029112081,893.0645161290322,44.30494905385734C894.3817204301074,34.93449781659388,895.6989247311827,17.46724890829694,897.0161290322579,14.28311499272198C898.3333333333333,11.09898107714702,899.6505376344085,22.19796215429404,900.9677419354837,26.20087336244542C902.284946236559,30.203784570596806,903.6021505376343,27.110625909752553,904.9193548387095,38.57350800582242C906.2365591397848,50.03639010189229,907.55376344086,76.05531295487627,908.2123655913977,89.06477438136827L908.8709677419354,102.07423580786026L908.8709677419354,125L908.2123655913977,124.99999999999999C907.55376344086,125,906.2365591397848,125,904.9193548387096,124.99999999999999C903.6021505376343,125,902.284946236559,125,900.9677419354837,124.99999999999999C899.6505376344085,125,898.3333333333333,125,897.016129032258,124.99999999999999C895.6989247311827,125,894.3817204301074,125,893.0645161290322,124.99999999999999C891.7473118279569,125,890.4301075268817,125,889.1129032258063,124.99999999999999C887.7956989247311,125,886.4784946236558,125,885.1612903225806,124.99999999999999C883.8440860215053,125,882.52688172043,125,881.2096774193546,124.99999999999999C879.8924731182794,125,878.5752688172042,125,877.2580645161289,124.99999999999999C875.9408602150536,125,874.6236559139784,125,873.3064516129031,124.99999999999999C871.9892473118279,125,870.6720430107525,125,869.3548387096773,124.99999999999999C868.037634408602,125,866.7204301075267,125,865.4032258064515,124.99999999999999C864.0860215053762,125,862.768817204301,125,861.4516129032257,124.99999999999999C860.1344086021504,125,858.8172043010752,125,857.5,124.99999999999999C856.1827956989247,125,854.8655913978494,125,853.5483870967741,124.99999999999999C852.2311827956988,125,850.9139784946235,125,849.5967741935483,124.99999999999999C848.279569892473,125,846.9623655913978,125,845.6451612903224,124.99999999999999C844.3279569892472,125,843.0107526881719,125,841.6935483870967,124.99999999999999C840.3763440860214,125,839.0591397849461,125,837.7419354838707,124.99999999999999C836.4247311827955,125,835.1075268817203,125,833.7903225806451,124.99999999999999C832.4731182795698,125,831.1559139784946,125,829.8387096774194,124.99999999999999C828.5215053763441,125,827.2043010752687,125,825.8870967741934,124.99999999999999C824.5698924731182,125,823.2526881720429,125,821.9354838709676,124.99999999999999C820.6182795698924,125,819.3010752688172,125,817.9838709677418,124.99999999999999C816.6666666666665,125,815.3494623655913,125,814.0322580645161,124.99999999999999C812.7150537634408,125,811.3978494623655,125,810.0806451612902,124.99999999999999C808.7634408602149,125,807.4462365591396,125,806.1290322580644,124.99999999999999C804.8118279569891,125,803.4946236559139,125,802.1774193548385,124.99999999999999C800.8602150537633,125,799.5430107526881,125,798.2258064516128,124.99999999999999C796.9086021505376,125,795.5913978494623,125,794.2741935483871,124.99999999999999C792.9569892473118,125,791.6397849462364,125,790.3225806451612,124.99999999999999C789.0053763440859,125,787.6881720430107,125,786.3709677419355,124.99999999999999C785.0537634408602,125,783.7365591397848,125,782.4193548387095,124.99999999999999C781.1021505376343,125,779.784946236559,125,778.4677419354837,124.99999999999999C777.1505376344085,125,775.8333333333333,125,774.5161290322579,124.99999999999999C773.1989247311826,125,771.8817204301074,125,770.5645161290322,124.99999999999999C769.2473118279569,125,767.9301075268817,125,766.6129032258065,124.99999999999999C765.2956989247311,125,763.9784946236558,125,762.6612903225806,124.99999999999999C761.3440860215053,125,760.0268817204301,125,758.7096774193548,124.99999999999999C757.3924731182796,125,756.0752688172042,125,754.758064516129,124.99999999999999C753.4408602150537,125,752.1236559139784,125,750.8064516129032,124.99999999999999C749.4892473118279,125,748.1720430107525,125,746.8548387096773,124.99999999999999C745.5376344086021,125,744.2204301075268,125,742.9032258064516,124.99999999999999C741.5860215053763,125,740.2688172043011,125,738.9516129032257,124.99999999999999C737.6344086021504,125,736.3172043010751,125,734.9999999999999,124.99999999999999C733.6827956989246,125,732.3655913978494,125,731.0483870967741,124.99999999999999C729.7311827956989,125,728.4139784946236,125,727.0967741935484,124.99999999999999C725.7795698924731,125,724.4623655913979,125,723.1451612903226,124.99999999999999C721.8279569892472,125,720.5107526881719,125,719.1935483870967,124.99999999999999C717.8763440860214,125,716.5591397849462,125,715.2419354838709,124.99999999999999C713.9247311827957,125,712.6075268817203,125,711.2903225806451,124.99999999999999C709.9731182795698,125,708.6559139784945,125,707.3387096774193,124.99999999999999C706.021505376344,125,704.7043010752686,125,703.3870967741935,124.99999999999999C702.0698924731182,125,700.752688172043,125,699.4354838709677,124.99999999999999C698.1182795698925,125,696.8010752688172,125,695.483870967742,124.99999999999999C694.1666666666666,125,692.8494623655913,125,691.5322580645161,124.99999999999999C690.2150537634408,125,688.8978494623655,125,687.5806451612902,124.99999999999999C686.263440860215,125,684.9462365591397,125,683.6290322580645,124.99999999999999C682.3118279569892,125,680.994623655914,125,679.6774193548387,124.99999999999999C678.3602150537633,125,677.043010752688,125,675.7258064516128,124.99999999999999C674.4086021505375,125,673.0913978494623,125,671.7741935483871,124.99999999999999C670.4569892473119,125,669.1397849462365,125,667.8225806451613,124.99999999999999C666.505376344086,125,665.1881720430108,125,663.8709677419355,124.99999999999999C662.5537634408602,125,661.2365591397848,125,659.9193548387096,124.99999999999999C658.6021505376343,125,657.2849462365591,125,655.9677419354838,124.99999999999999C654.6505376344086,125,653.3333333333333,125,652.016129032258,124.99999999999999C650.6989247311827,125,649.3817204301074,125,648.0645161290322,124.99999999999999C646.7473118279569,125,645.4301075268816,125,644.1129032258063,124.99999999999999C642.7956989247311,125,641.4784946236558,125,640.1612903225806,124.99999999999999C638.8440860215053,125,637.5268817204301,125,636.2096774193548,124.99999999999999C634.8924731182796,125,633.5752688172042,125,632.258064516129,124.99999999999999C630.9408602150537,125,629.6236559139784,125,628.3064516129032,124.99999999999999C626.989247311828,125,625.6720430107526,125,624.3548387096774,124.99999999999999C623.0376344086021,125,621.7204301075269,125,620.4032258064516,124.99999999999999C619.0860215053763,125,617.768817204301,125,616.4516129032257,124.99999999999999C615.1344086021504,125,613.8172043010752,125,612.4999999999999,124.99999999999999C611.1827956989247,125,609.8655913978494,125,608.5483870967741,124.99999999999999C607.2311827956988,125,605.9139784946235,125,604.5967741935483,124.99999999999999C603.2795698924731,125,601.9623655913978,125,600.6451612903226,124.99999999999999C599.3279569892472,125,598.010752688172,125,596.6935483870967,124.99999999999999C595.3763440860215,125,594.0591397849462,125,592.741935483871,124.99999999999999C591.4247311827957,125,590.1075268817203,125,588.7903225806451,124.99999999999999C587.4731182795698,125,586.1559139784945,125,584.8387096774193,124.99999999999999C583.5215053763441,125,582.2043010752687,125,580.8870967741935,124.99999999999999C579.5698924731182,125,578.252688172043,125,576.9354838709677,124.99999999999999C575.6182795698924,125,574.301075268817,125,572.9838709677418,124.99999999999999C571.6666666666665,125,570.3494623655913,125,569.0322580645161,124.99999999999999C567.7150537634409,125,566.3978494623656,125,565.0806451612904,124.99999999999999C563.763440860215,125,562.4462365591398,125,561.1290322580645,124.99999999999999C559.8118279569892,125,558.4946236559139,125,557.1774193548387,124.99999999999999C555.8602150537633,125,554.5430107526881,125,553.2258064516128,124.99999999999999C551.9086021505376,125,550.5913978494623,125,549.2741935483871,124.99999999999999C547.9569892473118,125,546.6397849462364,125,545.3225806451612,124.99999999999999C544.0053763440859,125,542.6881720430106,125,541.3709677419354,124.99999999999999C540.0537634408602,125,538.736559139785,125,537.4193548387096,124.99999999999999C536.1021505376344,125,534.7849462365591,125,533.4677419354839,124.99999999999999C532.1505376344086,125,530.8333333333333,125,529.516129032258,124.99999999999999C528.1989247311827,125,526.8817204301074,125,525.5645161290322,124.99999999999999C524.247311827957,125,522.9301075268817,125,521.6129032258065,124.99999999999999C520.2956989247311,125,518.9784946236559,125,517.6612903225806,124.99999999999999C516.3440860215053,125,515.02688172043,125,513.7096774193546,124.99999999999999C512.3924731182794,125,511.0752688172042,125,509.75806451612897,124.99999999999999C508.4408602150537,125,507.12365591397844,125,505.8064516129032,124.99999999999999C504.48924731182797,125,503.17204301075265,125,501.85483870967744,124.99999999999999C500.5376344086021,125,499.2204301075268,125,497.90322580645153,124.99999999999999C496.58602150537627,125,495.268817204301,125,493.95161290322574,124.99999999999999C492.6344086021505,125,491.3172043010752,125,489.99999999999994,124.99999999999999C488.6827956989247,125,487.3655913978494,125,486.04838709677415,124.99999999999999C484.7311827956989,125,483.4139784946236,125,482.09677419354836,124.99999999999999C480.7795698924731,125,479.46236559139777,125,478.14516129032245,124.99999999999999C476.82795698924724,125,475.5107526881719,125,474.1935483870967,124.99999999999999C472.87634408602145,125,471.5591397849462,125,470.241935483871,124.99999999999999C468.9247311827957,125,467.60752688172045,125,466.2903225806452,124.99999999999999C464.9731182795699,125,463.6559139784946,125,462.3387096774193,124.99999999999999C461.02150537634407,125,459.70430107526875,125,458.38709677419354,124.99999999999999C457.0698924731182,125,455.7526881720429,125,454.43548387096763,124.99999999999999C453.11827956989237,125,451.8010752688171,125,450.48387096774184,124.99999999999999C449.1666666666666,125,447.8494623655913,125,446.53225806451604,124.99999999999999C445.2150537634408,125,443.8978494623655,125,442.58064516129025,124.99999999999999C441.263440860215,125,439.9462365591397,125,438.62903225806446,124.99999999999999C437.3118279569892,125,435.9946236559139,125,434.67741935483866,124.99999999999999C433.3602150537634,125,432.04301075268813,125,430.72580645161287,124.99999999999999C429.4086021505376,125,428.09139784946234,125,426.7741935483871,124.99999999999999C425.4569892473118,125,424.13978494623655,125,422.8225806451613,124.99999999999999C421.505376344086,125,420.1881720430107,125,418.8709677419354,124.99999999999999C417.55376344086017,125,416.23655913978496,125,414.9193548387097,124.99999999999999C413.60215053763443,125,412.2849462365591,125,410.96774193548384,124.99999999999999C409.6505376344086,125,408.33333333333326,125,407.01612903225805,124.99999999999999C405.69892473118273,125,404.3817204301074,125,403.06451612903214,124.99999999999999C401.7473118279569,125,400.43010752688167,125,399.11290322580646,124.99999999999999C397.79569892473114,125,396.4784946236558,125,395.16129032258056,124.99999999999999C393.8440860215053,125,392.52688172043,125,391.20967741935476,124.99999999999999C389.8924731182795,125,388.57526881720423,125,387.25806451612897,124.99999999999999C385.9408602150537,125,384.6236559139785,125,383.30645161290323,124.99999999999999C381.98924731182797,125,380.6720430107527,125,379.35483870967744,124.99999999999999C378.0376344086021,125,376.72043010752685,125,375.4032258064516,124.99999999999999C374.0860215053763,125,372.76881720430106,125,371.4516129032258,124.99999999999999C370.13440860215053,125,368.8172043010752,125,367.5,124.99999999999999C366.1827956989247,125,364.86559139784947,125,363.5483870967742,124.99999999999999C362.23118279569894,125,360.9139784946236,125,359.5967741935483,124.99999999999999C358.2795698924731,125,356.96236559139777,125,355.64516129032256,124.99999999999999C354.32795698924724,125,353.010752688172,125,351.6935483870967,124.99999999999999C350.37634408602145,125,349.0591397849462,125,347.741935483871,124.99999999999999C346.42473118279565,125,345.1075268817204,125,343.7903225806451,124.99999999999999C342.47311827956986,125,341.1559139784946,125,339.83870967741933,124.99999999999999C338.52150537634407,125,337.2043010752688,125,335.88709677419354,124.99999999999999C334.5698924731183,125,333.252688172043,125,331.93548387096774,124.99999999999999C330.6182795698925,125,329.3010752688172,125,327.98387096774195,124.99999999999999C326.66666666666663,125,325.34946236559136,125,324.0322580645161,124.99999999999999C322.71505376344084,125,321.39784946236557,125,320.0806451612903,124.99999999999999C318.76344086021504,125,317.4462365591398,125,316.1290322580645,124.99999999999999C314.81182795698925,125,313.494623655914,125,312.1774193548387,124.99999999999999C310.86021505376345,125,309.54301075268813,125,308.22580645161287,124.99999999999999C306.9086021505376,125,305.5913978494623,125,304.2741935483871,124.99999999999999C302.95698924731175,125,301.63978494623655,125,300.3225806451612,124.99999999999999C299.005376344086,125,297.6881720430107,125,296.3709677419355,124.99999999999999C295.05376344086017,125,293.7365591397849,125,292.41935483870964,124.99999999999999C291.1021505376344,125,289.7849462365591,125,288.46774193548384,124.99999999999999C287.1505376344086,125,285.8333333333333,125,284.51612903225805,124.99999999999999C283.1989247311828,125,281.8817204301075,125,280.56451612903226,124.99999999999999C279.247311827957,125,277.9301075268817,125,276.61290322580646,124.99999999999999C275.29569892473114,125,273.9784946236559,125,272.6612903225806,124.99999999999999C271.34408602150535,125,270.0268817204301,125,268.7096774193549,124.99999999999999C267.39247311827955,125,266.0752688172043,125,264.758064516129,124.99999999999999C263.44086021505376,125,262.1236559139785,125,260.80645161290323,124.99999999999999C259.48924731182797,125,258.17204301075265,125,256.8548387096774,124.99999999999999C255.53763440860212,125,254.22043010752685,125,252.9032258064516,124.99999999999999C251.58602150537632,125,250.26881720430106,125,248.9516129032258,124.99999999999999C247.6344086021505,125,246.31720430107524,125,245,124.99999999999999C243.6827956989247,125,242.36559139784944,125,241.04838709677415,124.99999999999999C239.73118279569889,125,238.41397849462362,125,237.09677419354836,124.99999999999999C235.7795698924731,125,234.46236559139783,125,233.14516129032256,124.99999999999999C231.8279569892473,125,230.51075268817203,125,229.19354838709674,124.99999999999999C227.87634408602148,125,226.55913978494618,125,225.24193548387092,124.99999999999999C223.92473118279565,125,222.6075268817204,125,221.29032258064512,124.99999999999999C219.97311827956986,125,218.6559139784946,125,217.33870967741933,124.99999999999999C216.02150537634407,125,214.7043010752688,125,213.38709677419354,124.99999999999999C212.06989247311827,125,210.75268817204298,125,209.43548387096772,124.99999999999999C208.11827956989242,125,206.80107526881716,125,205.4838709677419,124.99999999999999C204.16666666666663,125,202.84946236559136,125,201.5322580645161,124.99999999999999C200.2150537634408,125,198.89784946236554,125,197.58064516129025,124.99999999999999C196.263440860215,125,194.94623655913975,125,193.6290322580645,124.99999999999999C192.31182795698922,125,190.99462365591398,125,189.67741935483872,124.99999999999999C188.36021505376345,125,187.04301075268816,125,185.72580645161293,124.99999999999999C184.40860215053763,125,183.09139784946237,125,181.77419354838707,124.99999999999999C180.4569892473118,125,179.13978494623655,125,177.82258064516125,124.99999999999999C176.50537634408602,125,175.18817204301075,125,173.87096774193546,124.99999999999999C172.5537634408602,125,171.23655913978493,125,169.91935483870967,124.99999999999999C168.6021505376344,125,167.28494623655914,125,165.96774193548387,124.99999999999999C164.65053763440858,125,163.33333333333331,125,162.01612903225805,124.99999999999999C160.69892473118279,125,159.38172043010752,125,158.06451612903226,124.99999999999999C156.747311827957,125,155.4301075268817,125,154.11290322580643,124.99999999999999C152.79569892473114,125,151.47849462365588,125,150.16129032258064,124.99999999999999C148.84408602150535,125,147.52688172043008,125,146.20967741935482,124.99999999999999C144.89247311827955,125,143.5752688172043,125,142.25806451612902,124.99999999999999C140.94086021505376,125,139.6236559139785,125,138.30645161290323,124.99999999999999C136.98924731182797,125,135.6720430107527,125,134.35483870967744,124.99999999999999C133.03763440860217,125,131.72043010752688,125,130.40322580645162,124.99999999999999C129.08602150537635,125,127.76881720430107,125,126.4516129032258,124.99999999999999C125.13440860215053,125,123.81720430107526,125,122.49999999999999,124.99999999999999C121.1827956989247,125,119.86559139784944,125,118.54838709677418,124.99999999999999C117.23118279569891,125,115.91397849462365,125,114.59677419354837,124.99999999999999C113.2795698924731,125,111.96236559139783,125,110.64516129032256,124.99999999999999C109.3279569892473,125,108.01075268817203,125,106.69354838709677,124.99999999999999C105.3763440860215,125,104.05913978494623,125,102.74193548387095,124.99999999999999C101.42473118279568,125,100.10752688172042,125,98.79032258064515,124.99999999999999C97.47311827956987,125,96.15591397849462,125,94.83870967741936,124.99999999999999C93.5215053763441,125,92.20430107526882,125,90.88709677419355,124.99999999999999C89.56989247311827,125,88.25268817204301,125,86.93548387096773,124.99999999999999C85.61827956989247,125,84.3010752688172,125,82.98387096774194,124.99999999999999C81.66666666666666,125,80.34946236559139,125,79.03225806451613,124.99999999999999C77.71505376344086,125,76.39784946236558,125,75.08064516129032,124.99999999999999C73.76344086021504,125,72.44623655913978,125,71.12903225806451,124.99999999999999C69.81182795698925,125,68.49462365591398,125,67.1774193548387,124.99999999999999C65.86021505376344,125,64.54301075268818,125,63.2258064516129,124.99999999999999C61.90860215053763,125,60.59139784946235,125,59.27419354838709,124.99999999999999C57.95698924731182,125,56.639784946236546,125,55.32258064516128,124.99999999999999C54.00537634408602,125,52.688172043010745,125,51.37096774193548,124.99999999999999C50.05376344086021,125,48.736559139784944,125,47.41935483870967,124.99999999999999C46.10215053763441,125,44.784946236559136,125,43.46774193548387,124.99999999999999C42.1505376344086,125,40.83333333333333,125,39.516129032258064,124.99999999999999C38.19892473118279,125,36.88172043010752,125,35.564516129032256,124.99999999999999C34.247311827956985,125,32.93010752688172,125,31.61290322580645,124.99999999999999C30.29569892473118,125,28.978494623655912,125,27.661290322580644,124.99999999999999C26.344086021505372,125,25.026881720430104,125,23.709677419354836,124.99999999999999C22.392473118279568,125,21.0752688172043,125,19.758064516129032,124.99999999999999C18.440860215053764,125,17.123655913978496,125,15.806451612903226,124.99999999999999C14.489247311827956,125,13.172043010752688,125,11.854838709677418,124.99999999999999C10.53763440860215,125,9.220430107526882,125,7.903225806451612,124.99999999999999C6.586021505376344,125,5.268817204301075,125,3.951612903225806,124.99999999999999C2.6344086021505375,125,1.3172043010752688,125,0.6586021505376344,124.99999999999999L0,125Z"></path><g class="selection" style="pointer-events: all; -webkit-tap-highlight-color: rgba(0, 0, 0, 0);"><rect class="background" x="0" width="910" height="125" style="visibility: hidden; cursor: crosshair;"></rect><rect class="extent" x="0" width="0" height="125" style="cursor: move;"></rect><g class="resize e" transform="translate(0,0)" style="cursor: ew-resize; display: none;"><rect x="-3" width="6" height="125" style="visibility: hidden;"></rect></g><g class="resize w" transform="translate(0,0)" style="cursor: ew-resize; display: none;"><rect x="-3" width="6" height="125" style="visibility: hidden;"></rect></g></g></g></svg>
